<?xml version="1.0" encoding="UTF-8" ?>
<svg version="1.1" width="128" height="128" xmlns="http://www.w3.org/2000/svg" shape-rendering="crispEdges">
<rect x="24" y="12" width="80" height="4" fill="#113555" />
<rect x="20" y="16" width="4" height="4" fill="#113555" />
<rect x="24" y="16" width="80" height="4" fill="#FFE4D8" />
<rect x="104" y="16" width="4" height="4" fill="#113555" />
<rect x="16" y="20" width="4" height="4" fill="#113555" />
<rect x="20" y="20" width="4" height="4" fill="#FFE4D8" />
<rect x="24" y="20" width="80" height="4" fill="#113555" />
<rect x="104" y="20" width="4" height="4" fill="#FFE4D8" />
<rect x="108" y="20" width="4" height="4" fill="#113555" />
<rect x="12" y="24" width="4" height="4" fill="#113555" />
<rect x="16" y="24" width="4" height="4" fill="#FFE4D8" />
<rect x="20" y="24" width="4" height="4" fill="#113555" />
<rect x="24" y="24" width="80" height="4" fill="#4CCBEA" />
<rect x="104" y="24" width="4" height="4" fill="#113555" />
<rect x="108" y="24" width="4" height="4" fill="#FFE4D8" />
<rect x="112" y="24" width="4" height="4" fill="#113555" />
<rect x="8" y="28" width="4" height="76" fill="#113555" />
<rect x="12" y="28" width="4" height="24" fill="#FFE4D8" />
<rect x="16" y="28" width="4" height="76" fill="#113555" />
<rect x="20" y="28" width="32" height="4" fill="#4CCBEA" />
<rect x="52" y="28" width="24" height="4" fill="#2A55D5" />
<rect x="76" y="28" width="32" height="4" fill="#4CCBEA" />
<rect x="108" y="28" width="4" height="76" fill="#113555" />
<rect x="112" y="28" width="4" height="24" fill="#FFE4D8" />
<rect x="116" y="28" width="4" height="76" fill="#113555" />
<rect x="20" y="32" width="24" height="4" fill="#4CCBEA" />
<rect x="44" y="32" width="8" height="4" fill="#2A55D5" />
<rect x="52" y="32" width="16" height="4" fill="#B9E8E4" />
<rect x="68" y="32" width="4" height="4" fill="#0BC1F2" />
<rect x="72" y="32" width="4" height="4" fill="#564BAA" />
<rect x="76" y="32" width="8" height="4" fill="#2A55D5" />
<rect x="84" y="32" width="24" height="4" fill="#4CCBEA" />
<rect x="20" y="36" width="20" height="4" fill="#4CCBEA" />
<rect x="40" y="36" width="4" height="4" fill="#2A55D5" />
<rect x="44" y="36" width="4" height="4" fill="#B9E8E4" />
<rect x="48" y="36" width="8" height="16" fill="#FFFFF8" />
<rect x="56" y="36" width="16" height="4" fill="#B9E8E4" />
<rect x="72" y="36" width="8" height="8" fill="#0BC1F2" />
<rect x="80" y="36" width="4" height="4" fill="#564BAA" />
<rect x="84" y="36" width="4" height="4" fill="#2A55D5" />
<rect x="88" y="36" width="20" height="4" fill="#4CCBEA" />
<rect x="20" y="40" width="16" height="8" fill="#4CCBEA" />
<rect x="36" y="40" width="4" height="8" fill="#2A55D5" />
<rect x="40" y="40" width="4" height="32" fill="#B9E8E4" />
<rect x="44" y="40" width="4" height="8" fill="#FFFFF8" />
<rect x="56" y="40" width="4" height="8" fill="#FFFFF8" />
<rect x="60" y="40" width="12" height="32" fill="#B9E8E4" />
<rect x="80" y="40" width="4" height="12" fill="#0BC1F2" />
<rect x="84" y="40" width="4" height="4" fill="#564BAA" />
<rect x="88" y="40" width="4" height="4" fill="#2A55D5" />
<rect x="92" y="40" width="16" height="8" fill="#4CCBEA" />
<rect x="72" y="44" width="8" height="16" fill="#B9E8E4" />
<rect x="84" y="44" width="4" height="32" fill="#0BC1F2" />
<rect x="88" y="44" width="4" height="4" fill="#1F4795" />
<rect x="20" y="48" width="12" height="24" fill="#4CCBEA" />
<rect x="32" y="48" width="4" height="20" fill="#2A55D5" />
<rect x="36" y="48" width="4" height="20" fill="#B9E8E4" />
<rect x="44" y="48" width="4" height="28" fill="#B9E8E4" />
<rect x="56" y="48" width="4" height="36" fill="#B9E8E4" />
<rect x="88" y="48" width="4" height="4" fill="#564BAA" />
<rect x="92" y="48" width="4" height="12" fill="#1F4795" />
<rect x="96" y="48" width="12" height="24" fill="#4CCBEA" />
<rect x="12" y="52" width="4" height="52" fill="#FDCBB0" />
<rect x="48" y="52" width="8" height="28" fill="#B9E8E4" />
<rect x="80" y="52" width="4" height="8" fill="#B9E8E4" />
<rect x="88" y="52" width="4" height="12" fill="#0BC1F2" />
<rect x="112" y="52" width="4" height="52" fill="#FDCBB0" />
<rect x="72" y="60" width="4" height="8" fill="#B9E8E4" />
<rect x="76" y="60" width="8" height="4" fill="#0BC1F2" />
<rect x="92" y="60" width="4" height="12" fill="#113555" />
<rect x="76" y="64" width="4" height="4" fill="#B9E8E4" />
<rect x="80" y="64" width="4" height="16" fill="#0BC1F2" />
<rect x="88" y="64" width="4" height="8" fill="#564BAA" />
<rect x="32" y="68" width="4" height="4" fill="#1F4795" />
<rect x="36" y="68" width="4" height="4" fill="#0BC1F2" />
<rect x="72" y="68" width="8" height="4" fill="#0BC1F2" />
<rect x="20" y="72" width="16" height="4" fill="#8BCB59" />
<rect x="36" y="72" width="4" height="4" fill="#2A55D5" />
<rect x="40" y="72" width="4" height="8" fill="#0BC1F2" />
<rect x="60" y="72" width="4" height="12" fill="#B9E8E4" />
<rect x="64" y="72" width="8" height="4" fill="#0BC1F2" />
<rect x="72" y="72" width="4" height="4" fill="#B9E8E4" />
<rect x="76" y="72" width="4" height="12" fill="#0BC1F2" />
<rect x="88" y="72" width="4" height="8" fill="#113555" />
<rect x="92" y="72" width="16" height="4" fill="#8BCB59" />
<rect x="20" y="76" width="16" height="8" fill="#24AD28" />
<rect x="36" y="76" width="4" height="4" fill="#1F4795" />
<rect x="44" y="76" width="4" height="8" fill="#0BC1F2" />
<rect x="64" y="76" width="8" height="4" fill="#B9E8E4" />
<rect x="72" y="76" width="4" height="8" fill="#0BC1F2" />
<rect x="84" y="76" width="4" height="4" fill="#564BAA" />
<rect x="92" y="76" width="16" height="8" fill="#24AD28" />
<rect x="36" y="80" width="4" height="4" fill="#24AD28" />
<rect x="40" y="80" width="4" height="4" fill="#1F4795" />
<rect x="48" y="80" width="8" height="4" fill="#0BC1F2" />
<rect x="64" y="80" width="8" height="8" fill="#0BC1F2" />
<rect x="80" y="80" width="4" height="4" fill="#564BAA" />
<rect x="84" y="80" width="4" height="4" fill="#113555" />
<rect x="88" y="80" width="4" height="8" fill="#24AD28" />
<rect x="20" y="84" width="4" height="4" fill="#21873C" />
<rect x="24" y="84" width="4" height="4" fill="#24AD28" />
<rect x="28" y="84" width="4" height="4" fill="#21873C" />
<rect x="32" y="84" width="4" height="4" fill="#24AD28" />
<rect x="36" y="84" width="4" height="4" fill="#21873C" />
<rect x="40" y="84" width="4" height="4" fill="#24AD28" />
<rect x="44" y="84" width="4" height="4" fill="#1F4795" />
<rect x="48" y="84" width="4" height="4" fill="#113555" />
<rect x="52" y="84" width="12" height="4" fill="#0BC1F2" />
<rect x="72" y="84" width="4" height="4" fill="#564BAA" />
<rect x="76" y="84" width="8" height="4" fill="#113555" />
<rect x="84" y="84" width="4" height="4" fill="#21873C" />
<rect x="92" y="84" width="4" height="4" fill="#21873C" />
<rect x="96" y="84" width="4" height="4" fill="#24AD28" />
<rect x="100" y="84" width="4" height="4" fill="#21873C" />
<rect x="104" y="84" width="4" height="4" fill="#24AD28" />
<rect x="20" y="88" width="4" height="4" fill="#24AD28" />
<rect x="24" y="88" width="4" height="16" fill="#21873C" />
<rect x="28" y="88" width="4" height="4" fill="#24AD28" />
<rect x="32" y="88" width="4" height="16" fill="#21873C" />
<rect x="36" y="88" width="4" height="4" fill="#24AD28" />
<rect x="40" y="88" width="4" height="16" fill="#21873C" />
<rect x="44" y="88" width="4" height="4" fill="#24AD28" />
<rect x="48" y="88" width="4" height="16" fill="#21873C" />
<rect x="52" y="88" width="4" height="4" fill="#113555" />
<rect x="56" y="88" width="4" height="4" fill="#1F4795" />
<rect x="60" y="88" width="8" height="4" fill="#0BC1F2" />
<rect x="68" y="88" width="4" height="4" fill="#1F4795" />
<rect x="72" y="88" width="4" height="4" fill="#113555" />
<rect x="76" y="88" width="4" height="4" fill="#24AD28" />
<rect x="80" y="88" width="4" height="16" fill="#21873C" />
<rect x="84" y="88" width="4" height="4" fill="#24AD28" />
<rect x="88" y="88" width="4" height="16" fill="#21873C" />
<rect x="92" y="88" width="4" height="4" fill="#24AD28" />
<rect x="96" y="88" width="4" height="16" fill="#21873C" />
<rect x="100" y="88" width="4" height="4" fill="#24AD28" />
<rect x="104" y="88" width="4" height="16" fill="#21873C" />
<rect x="20" y="92" width="4" height="8" fill="#21873C" />
<rect x="28" y="92" width="4" height="8" fill="#21873C" />
<rect x="36" y="92" width="4" height="8" fill="#21873C" />
<rect x="44" y="92" width="4" height="8" fill="#21873C" />
<rect x="52" y="92" width="4" height="8" fill="#21873C" />
<rect x="56" y="92" width="16" height="4" fill="#113555" />
<rect x="72" y="92" width="8" height="8" fill="#21873C" />
<rect x="84" y="92" width="4" height="8" fill="#21873C" />
<rect x="92" y="92" width="4" height="8" fill="#21873C" />
<rect x="100" y="92" width="4" height="8" fill="#21873C" />
<rect x="56" y="96" width="4" height="4" fill="#113555" />
<rect x="60" y="96" width="4" height="4" fill="#0BC1F2" />
<rect x="64" y="96" width="4" height="4" fill="#564BAA" />
<rect x="68" y="96" width="4" height="4" fill="#113555" />
<rect x="20" y="100" width="4" height="4" fill="#0F4725" />
<rect x="28" y="100" width="4" height="8" fill="#0F4725" />
<rect x="36" y="100" width="4" height="8" fill="#0F4725" />
<rect x="44" y="100" width="4" height="8" fill="#0F4725" />
<rect x="52" y="100" width="4" height="8" fill="#0F4725" />
<rect x="56" y="100" width="4" height="4" fill="#21873C" />
<rect x="60" y="100" width="8" height="4" fill="#113555" />
<rect x="68" y="100" width="4" height="8" fill="#0F4725" />
<rect x="72" y="100" width="4" height="4" fill="#21873C" />
<rect x="76" y="100" width="4" height="8" fill="#0F4725" />
<rect x="84" y="100" width="4" height="8" fill="#0F4725" />
<rect x="92" y="100" width="4" height="8" fill="#0F4725" />
<rect x="100" y="100" width="4" height="8" fill="#0F4725" />
<rect x="12" y="104" width="4" height="4" fill="#113555" />
<rect x="16" y="104" width="4" height="4" fill="#FDCBB0" />
<rect x="20" y="104" width="4" height="4" fill="#113555" />
<rect x="24" y="104" width="4" height="4" fill="#0F4725" />
<rect x="32" y="104" width="4" height="4" fill="#0F4725" />
<rect x="40" y="104" width="4" height="4" fill="#0F4725" />
<rect x="48" y="104" width="4" height="4" fill="#0F4725" />
<rect x="56" y="104" width="12" height="4" fill="#0F4725" />
<rect x="72" y="104" width="4" height="4" fill="#0F4725" />
<rect x="80" y="104" width="4" height="4" fill="#0F4725" />
<rect x="88" y="104" width="4" height="4" fill="#0F4725" />
<rect x="96" y="104" width="4" height="4" fill="#0F4725" />
<rect x="104" y="104" width="4" height="4" fill="#113555" />
<rect x="108" y="104" width="4" height="4" fill="#FDCBB0" />
<rect x="112" y="104" width="4" height="4" fill="#113555" />
<rect x="16" y="108" width="4" height="4" fill="#113555" />
<rect x="20" y="108" width="4" height="4" fill="#FDCBB0" />
<rect x="24" y="108" width="80" height="4" fill="#113555" />
<rect x="104" y="108" width="4" height="4" fill="#FDCBB0" />
<rect x="108" y="108" width="4" height="4" fill="#113555" />
<rect x="20" y="112" width="4" height="4" fill="#113555" />
<rect x="24" y="112" width="80" height="4" fill="#FDCBB0" />
<rect x="104" y="112" width="4" height="4" fill="#113555" />
<rect x="24" y="116" width="80" height="4" fill="#113555" />
</svg>